<svg xmlns="http://www.w3.org/2000/svg" viewBox="0 0 512 512">
  <!-- Brand Layers -->
  <circle cx="256" cy="256" r="256" fill="#0f172a" />
  <circle cx="256" cy="256" r="235" fill="#ffffff" />
  <circle cx="256" cy="256" r="215" fill="#a855f7" />

  <!-- Stars -->
  <circle cx="150" cy="120" r="12" fill="#ffffff" opacity="0.4" />
  <circle cx="420" cy="250" r="10" fill="#38bdf8" opacity="0.6" />

  <!-- B-Toothbrush -->
  <g transform="translate(256, 256) rotate(-45) translate(-256, -256)">
    <!-- Slim Handle (shifted up slightly to make room for big bristles) -->
    <rect x="20" y="210" width="420" height="30" rx="15" fill="#1e40af" />
    
    <!-- 50% Larger B-Bristles on the bottom side -->
    <g transform="translate(120, 240)">
      <!-- First Loop (Large) -->
      <path d="M0 0 a75 75 0 0 0 150 0 z" fill="#3b82f6" />
      <!-- Second Loop (Large) -->
      <path d="M150 0 a75 75 0 0 0 150 0 z" fill="#3b82f6" />
      
      <!-- Bristle Texture -->
      <path d="M30 10 v40 M75 10 v60 M120 10 v40" stroke="#ffffff" stroke-width="4" opacity="0.2" stroke-linecap="round" />
      <path d="M180 10 v40 M225 10 v60 M270 10 v40" stroke="#ffffff" stroke-width="4" opacity="0.2" stroke-linecap="round" />
    </g>
  </g>
</svg>